<svg width="24px" height="24px" viewBox="0 0 24 24" fill="none" xmlns="http://www.w3.org/2000/svg">
<path d="M11.1524 9.67339H11.3932V11.1369L10.988 10.9902C10.7724 10.9121 10.5835 10.6693 10.5835 10.3464C10.5835 9.9241 10.8868 9.67339 11.1524 9.67339Z" fill="#2563EB"/>
<path d="M12.6074 14.3265V12.8631L13.0121 13.0097C13.2277 13.0877 13.4166 13.3306 13.4166 13.6535C13.4166 14.0758 13.1133 14.3265 12.8477 14.3265H12.6074Z" fill="#2563EB"/>
<path fill-rule="evenodd" clip-rule="evenodd" d="M8.96917 3.3303C10.9655 2.8899 13.0345 2.8899 15.0308 3.3303L15.4484 3.42243C18.2366 4.03749 20.4347 6.17136 21.123 8.9312C21.6257 10.9465 21.6257 13.0535 21.123 15.0688C20.4347 17.8286 18.2366 19.9625 15.4484 20.5776L15.0308 20.6697C13.0345 21.1101 10.9655 21.1101 8.96917 20.6697L8.55155 20.5776C5.76343 19.9625 3.56534 17.8286 2.87698 15.0688C2.37434 13.0536 2.37434 10.9465 2.87698 8.93119C3.56534 6.17136 5.76343 4.03749 8.55155 3.42243L8.96917 3.3303ZM12.6074 7.96972C12.6074 7.63584 12.3356 7.36518 12.0003 7.36518C11.665 7.36518 11.3932 7.63584 11.3932 7.96972V8.46431H11.1524C10.119 8.46431 9.36928 9.35753 9.36928 10.3464C9.36928 11.1232 9.82817 11.8568 10.573 12.1265L11.3932 12.4235V14.3265H11.3255C10.9643 14.3265 10.5835 13.9916 10.5835 13.4655C10.5835 13.1316 10.3117 12.861 9.97638 12.861C9.64109 12.861 9.36928 13.1316 9.36928 13.4655C9.36928 14.5582 10.1965 15.5356 11.3255 15.5356H11.3932V16.0302C11.3932 16.3641 11.665 16.6348 12.0003 16.6348C12.3356 16.6348 12.6074 16.3641 12.6074 16.0302V15.5356H12.8477C13.8811 15.5356 14.6308 14.6424 14.6308 13.6535C14.6308 12.8767 14.1719 12.1431 13.427 11.8734L12.6074 11.5766V9.67339H12.6746C13.0358 9.67339 13.4166 10.0083 13.4166 10.5344C13.4166 10.8683 13.6884 11.1389 14.0237 11.1389C14.359 11.1389 14.6308 10.8683 14.6308 10.5344C14.6308 9.44171 13.8036 8.46431 12.6746 8.46431H12.6074V7.96972Z" fill="#363853"/>
</svg>
